#!OML:ASF H:\ManfredETheater\Project 1\Capture day 1\Session 1\subject.ASF
:FULLY-SPECIFIED
:DEGREES
185
root -1.3192 10.4824 -24.4695 153.17 -55.6717 -132.627
lowerback 44.6291 -0.978861 -1.5133
upperback 10.0951 -3.63242 3.8565
thorax -9.18128 -2.68347 6.67986
lowerneck -5.70121 -11.8368 -11.3839
upperneck -1.48785 -17.6745 31.5227
head 4.79557 -9.04233 10.4248
rclavicle -2.54444e-014 5.56597e-014
rhumerus -6.62447 -13.3227 -42.9796
rradius 79.5566
rwrist -8.67918
rhand -29.5853 -11.7794
rfingers 7.12502
rthumb -2.917 -41.7392
lclavicle -2.54444e-014 5.56597e-014
lhumerus -10.574 -6.14752 60.6022
lradius 33.7699
lwrist -33.752
lhand -43.6083 7.36942
lfingers 7.12502
lthumb -16.4441 36.6925
rfemur -114.512 -21.1899 49.6209
rtibia 98.0041
rfoot 14.3622 5.61433
rtoes -25.8486
lfemur -43.9304 29.4474 -2.26331
ltibia 120.753
lfoot 52.2781 -42.0248
ltoes 29.6657
186
root -1.36923 10.5838 -24.7311 155.174 -56.4964 -135.214
lowerback 43.7248 -1.22636 -1.59141
upperback 9.97666 -3.9075 3.59524
thorax -9.04338 -2.76513 6.51716
lowerneck -5.63863 -11.9051 -11.6382
upperneck -1.28513 -17.6915 31.0707
head 4.81148 -8.99946 10.3093
rclavicle -1.59028e-014 -8.11041e-014
rhumerus -7.04264 -12.9141 -42.7689
rradius 79.3672
rwrist -8.66376
rhand -29.6316 -11.7117
rfingers 7.12502
rthumb -2.96166 -41.6709
lclavicle -1.59028e-014 -8.11041e-014
lhumerus -10.2131 -4.3533 61.7756
lradius 31.6206
lwrist -34.2086
lhand -39.5557 7.85011
lfingers 7.12502
lthumb -12.5395 37.4538
rfemur -113.622 -20.8048 49.7389
rtibia 98.5908
rfoot 12.0692 5.77812
rtoes -22.5867
lfemur -42.0611 28.3413 -2.37939
ltibia 118.977
lfoot 54.7816 -41.9013
ltoes 30.5382
187
root -1.42534 10.6825 -24.9895 157.137 -57.2104 -137.779
lowerback 42.8249 -1.48304 -1.564
upperback 9.83654 -4.1479 3.35448
thorax -8.93171 -2.83296 6.3075
lowerneck -5.54665 -11.986 -11.8668
upperneck -1.08574 -17.724 30.5804
head 4.81731 -8.96813 10.1758
rclavicle 3.49861e-014 -3.97569e-014
rhumerus -7.48733 -12.5041 -42.5044
rradius 79.2053
rwrist -8.45616
rhand -29.6219 -11.5095
rfingers 7.12502
rthumb -2.95227 -41.4688
lclavicle 3.49861e-014 -3.97569e-014
lhumerus -9.94439 -2.31404 63.0391
lradius 29.6332
lwrist -34.6772
lhand -35.2623 8.16048
lfingers 7.12502
lthumb -8.39789 37.9735
rfemur -112.481 -20.5368 49.747
rtibia 99.0861
rfoot 9.28161 5.9143
rtoes -18.922
lfemur -40.1531 27.1822 -2.49108
ltibia 117.08
lfoot 57.3971 -41.5513
ltoes 30.9519
188
root -1.48682 10.7788 -25.2451 158.998 -57.8398 -140.258
lowerback 41.9498 -1.75891 -1.41885
upperback 9.67054 -4.36226 3.14193
thorax -8.85696 -2.89031 6.05777
lowerneck -5.42805 -12.0805 -12.0756
upperneck -0.886051 -17.7763 30.0618
head 4.81757 -8.95033 10.0282
rclavicle 6.36111e-015 -1.145e-013
rhumerus -7.95725 -12.0878 -42.191
rradius 79.0639
rwrist -8.04846
rhand -29.5817 -11.1841
rfingers 7.12502
rthumb -2.91346 -41.1439
lclavicle 6.36111e-015 -1.145e-013
lhumerus -9.82061 -0.162583 64.3725
lradius 27.843
lwrist -35.0358
lhand -31.1562 8.36831
lfingers 7.12502
lthumb -4.43398 38.3019
rfemur -111.173 -20.3971 49.6752
rtibia 99.5383
rfoot 6.12139 5.85949
rtoes -15.2693
lfemur -38.2311 25.9486 -2.60412
ltibia 115.074
lfoot 60.0753 -41.0193
ltoes 30.9423
